<?xml version="1.0" encoding="utf-8"?>
<!-- Generator: Adobe Illustrator 21.0.0, SVG Export Plug-In . SVG Version: 6.00 Build 0)  -->
<svg version="1.1" id="Layer_1" xmlns="http://www.w3.org/2000/svg" xmlns:xlink="http://www.w3.org/1999/xlink" x="0px" y="0px"
	 viewBox="-294 386.7 21.2 21.3" style="enable-background:new -294 386.7 21.2 21.3;" xml:space="preserve">
<g>
	<g>
		<path d="M-275.36,400.37c-1.17,0-2.31-0.18-3.4-0.54c-0.53-0.18-1.13-0.04-1.48,0.31l-2.15,1.62c-2.47-1.32-4.05-2.89-5.34-5.34
			l1.58-2.1c0.4-0.4,0.54-0.98,0.37-1.53c-0.36-1.09-0.54-2.24-0.54-3.4c0-0.82-0.67-1.5-1.5-1.5h-3.49c-0.82,0-1.5,0.67-1.5,1.5
			c0,9.62,7.83,17.44,17.44,17.44c0.82,0,1.5-0.67,1.5-1.5v-3.48C-273.86,401.04-274.53,400.37-275.36,400.37z M-274.86,405.34
			c0,0.28-0.22,0.5-0.5,0.5c-9.07,0-16.45-7.38-16.45-16.45c0-0.28,0.22-0.5,0.5-0.5h3.49c0.27,0,0.5,0.22,0.5,0.5
			c0,1.27,0.2,2.52,0.59,3.71c0.06,0.19,0.01,0.38-0.17,0.57l-1.81,2.4c-0.11,0.15-0.13,0.36-0.05,0.53c1.48,2.9,3.27,4.7,6.2,6.2
			c0.17,0.09,0.37,0.07,0.53-0.05l2.45-1.86c0.13-0.13,0.33-0.18,0.51-0.12c1.19,0.39,2.44,0.59,3.72,0.59c0.27,0,0.5,0.22,0.5,0.5
			L-274.86,405.34L-274.86,405.34z"/>
	</g>
</g>
</svg>
