<?xml version="1.0" encoding="utf-8"?>
<!-- Generator: Adobe Illustrator 21.0.0, SVG Export Plug-In . SVG Version: 6.00 Build 0)  -->
<svg version="1.1" id="Layer_1" xmlns="http://www.w3.org/2000/svg" xmlns:xlink="http://www.w3.org/1999/xlink" x="0px" y="0px"
	 viewBox="-294 386.7 21.2 21.3" style="enable-background:new -294 386.7 21.2 21.3;" xml:space="preserve">
<g>
	<path d="M-274.53,392.17c-0.4-0.42-0.96-0.66-1.56-0.66h-2.88c-0.02-0.45-0.2-0.88-0.51-1.17c-0.33-0.33-0.77-0.51-1.23-0.51h-5.38
		c-0.48,0-0.92,0.18-1.25,0.51c-0.32,0.32-0.5,0.73-0.51,1.17h-2.86c-0.6,0-1.15,0.23-1.56,0.66c-0.42,0.42-0.66,0.98-0.66,1.56
		v8.93c0,0.6,0.23,1.15,0.66,1.56c0.42,0.42,0.99,0.66,1.56,0.66h14.63c0.6,0,1.15-0.23,1.56-0.66c0.42-0.42,0.66-0.98,0.66-1.56
		v-8.93C-273.87,393.13-274.11,392.58-274.53,392.17z M-291.78,393.73c0-0.29,0.11-0.55,0.31-0.75c0.2-0.2,0.46-0.31,0.75-0.31h3.46
		c0.32,0,0.58-0.26,0.58-0.58v-0.52c0-0.17,0.06-0.32,0.17-0.43c0.11-0.11,0.26-0.17,0.43-0.17h5.36c0.17,0,0.32,0.06,0.43,0.17
		c0.11,0.11,0.17,0.26,0.17,0.43v0.52c0,0.32,0.26,0.58,0.58,0.58h3.46c0.29,0,0.55,0.11,0.76,0.31c0.2,0.2,0.31,0.46,0.31,0.75
		v8.83h-0.02v0.1c0,0.29-0.11,0.55-0.31,0.76c-0.2,0.2-0.47,0.31-0.76,0.31h-14.63c-0.29,0-0.55-0.11-0.75-0.31
		c-0.2-0.2-0.31-0.47-0.31-0.76V393.73z"/>
	<path d="M-280.21,395c-0.84-0.84-2-1.32-3.19-1.32c-1.19,0-2.35,0.48-3.19,1.32c-0.85,0.85-1.32,1.98-1.32,3.19
		c0,1.19,0.48,2.35,1.32,3.19c0.85,0.85,1.98,1.32,3.19,1.32c1.19,0,2.35-0.48,3.19-1.32c0.85-0.85,1.32-1.98,1.32-3.19
		C-278.89,397-279.37,395.84-280.21,395z M-280.06,398.21c0.02,0.88-0.33,1.72-0.98,2.36c-0.65,0.63-1.49,0.98-2.37,0.98
		c-0.88,0-1.72-0.35-2.37-0.98c-0.63-0.63-0.97-1.47-0.97-2.37c0-0.88,0.35-1.72,0.97-2.37c0.63-0.63,1.47-0.98,2.37-0.98
		c0.88,0,1.72,0.35,2.37,0.98C-280.4,396.47-280.06,397.31-280.06,398.21z"/>
	<circle cx="-277.02" cy="394.64" r="0.98"/>
</g>
</svg>
