<?xml version="1.0" encoding="utf-8"?>
<!-- Generator: Adobe Illustrator 21.0.0, SVG Export Plug-In . SVG Version: 6.00 Build 0)  -->
<svg version="1.1" id="Layer_1" xmlns="http://www.w3.org/2000/svg" xmlns:xlink="http://www.w3.org/1999/xlink" x="0px" y="0px"
	 viewBox="0 0 21.2 21.3" style="enable-background:new 0 0 21.2 21.3;" xml:space="preserve">
<style type="text/css">
	.st0{fill:#28336D;}
</style>
<g>
	<g id="surface1_1_">
		<path id="XMLID_491_" class="st0" d="M16.76,17.61c0.83-1.18,0.55-2.81-0.62-3.64s-2.81-0.55-3.64,0.62
			c-0.83,1.18-0.55,2.81,0.62,3.64c0.84,0.59,1.95,0.64,2.84,0.12l1.93,1.91c0.21,0.22,0.55,0.23,0.77,0.02
			c0.22-0.21,0.23-0.55,0.02-0.77c-0.01-0.01-0.01-0.01-0.02-0.02L16.76,17.61z M14.62,17.79c-0.93,0-1.68-0.75-1.68-1.68
			c0-0.93,0.75-1.68,1.68-1.68c0.93,0,1.68,0.75,1.68,1.68C16.31,17.03,15.55,17.79,14.62,17.79
			C14.62,17.79,14.62,17.79,14.62,17.79z"/>
	</g>
	<g id="XMLID_479_">
		<path id="XMLID_498_" class="st0" d="M9.46,9.17c1.14,0,2.13-0.41,2.94-1.22c0.81-0.81,1.22-1.79,1.22-2.94
			c0-1.14-0.41-2.13-1.22-2.94c-0.81-0.81-1.79-1.22-2.94-1.22c-1.14,0-2.13,0.41-2.94,1.22S5.31,3.88,5.31,5.02
			c0,1.14,0.41,2.13,1.22,2.94C7.33,8.76,8.32,9.17,9.46,9.17z"/>
		<path id="XMLID_503_" class="st0" d="M11.14,16.11c0-1.92,1.56-3.48,3.48-3.48c0.75,0,1.44,0.24,2,0.64
			c-0.01-0.08-0.03-0.16-0.04-0.23c-0.07-0.39-0.16-0.76-0.27-1.1c-0.11-0.35-0.26-0.69-0.45-1.02c-0.19-0.34-0.42-0.64-0.68-0.88
			c-0.27-0.26-0.6-0.46-0.98-0.61c-0.38-0.15-0.8-0.23-1.24-0.23c-0.18,0-0.35,0.07-0.67,0.29c-0.2,0.13-0.44,0.28-0.7,0.45
			c-0.23,0.14-0.53,0.28-0.91,0.4c-0.37,0.12-0.74,0.18-1.11,0.18s-0.74-0.06-1.11-0.18c-0.38-0.12-0.68-0.26-0.91-0.4
			c-0.26-0.17-0.5-0.32-0.7-0.45c-0.33-0.21-0.5-0.29-0.67-0.29c-0.45,0-0.87,0.08-1.24,0.23c-0.38,0.15-0.71,0.36-0.98,0.61
			c-0.26,0.25-0.48,0.54-0.68,0.88c-0.19,0.33-0.34,0.67-0.45,1.02c-0.11,0.34-0.2,0.71-0.27,1.09c-0.07,0.39-0.12,0.75-0.14,1.09
			c-0.02,0.33-0.03,0.67-0.03,1.02c0,0.9,0.29,1.63,0.85,2.17c0.56,0.53,1.29,0.8,2.19,0.8h6.35
			C11.38,17.54,11.14,16.85,11.14,16.11z"/>
	</g>
</g>
</svg>
