<?xml version="1.0" encoding="utf-8"?>
<!-- Generator: Adobe Illustrator 21.0.0, SVG Export Plug-In . SVG Version: 6.00 Build 0)  -->
<svg version="1.1" id="Layer_1" xmlns="http://www.w3.org/2000/svg" xmlns:xlink="http://www.w3.org/1999/xlink" x="0px" y="0px"
	 viewBox="0 0 21.2 21.3" style="enable-background:new 0 0 21.2 21.3;" xml:space="preserve">
<g>
	<g>
		<g>
			<path d="M12.1,1.9c-0.2-0.1-0.5-0.1-0.7,0.1L5.3,6.9H2.4c-0.7,0-1.3,0.6-1.3,1.3v5c0,0.7,0.6,1.3,1.3,1.3h2.9l6.1,4.9
				c0.1,0.1,0.3,0.1,0.4,0.1c0.1,0,0.2,0,0.3-0.1c0.2-0.1,0.4-0.3,0.4-0.6V2.5C12.5,2.2,12.3,2,12.1,1.9z M4.9,13.2H2.4v-5h2.5V13.2
				z M11.2,17.5l-5-4V7.8l5-4V17.5z"/>
		</g>
	</g>
	<g>
		<g>
			<path d="M15.7,6.2C15.4,6,15,6,14.8,6.2c-0.2,0.2-0.2,0.6,0,0.9c1,0.9,1.5,2.2,1.5,3.6s-0.5,2.6-1.5,3.6c-0.2,0.2-0.3,0.6,0,0.9
				c0.1,0.1,0.3,0.2,0.4,0.2c0.2,0,0.3-0.1,0.4-0.2c1.2-1.2,1.8-2.8,1.8-4.4S16.9,7.4,15.7,6.2z"/>
		</g>
	</g>
	<g>
		<g>
			<path d="M17.4,4.4c-0.2-0.2-0.6-0.2-0.9,0c-0.2,0.2-0.2,0.6,0,0.9c1.4,1.4,2.2,3.3,2.2,5.3S18,14.6,16.6,16
				c-0.2,0.2-0.2,0.6,0,0.9c0.1,0.1,0.3,0.2,0.4,0.2c0.2,0,0.3-0.1,0.4-0.2c1.7-1.7,2.6-3.9,2.6-6.2S19.1,6.1,17.4,4.4z"/>
		</g>
	</g>
</g>
</svg>
