<?xml version="1.0" encoding="utf-8"?>
<!-- Generator: Adobe Illustrator 21.0.0, SVG Export Plug-In . SVG Version: 6.00 Build 0)  -->
<svg version="1.1" id="Layer_1" xmlns="http://www.w3.org/2000/svg" xmlns:xlink="http://www.w3.org/1999/xlink" x="0px" y="0px"
	 viewBox="-294 386.7 21.2 21.3" style="enable-background:new -294 386.7 21.2 21.3;" xml:space="preserve">
<path d="M-274.18,392.33L-274.18,392.33c-0.19-0.11-0.43-0.12-0.63-0.01l-3.9,2.13v-0.99c0-1.22-0.99-2.21-2.21-2.21h-9.8
	c-1.22,0-2.21,0.99-2.21,2.21v7.77c0,1.22,0.99,2.21,2.21,2.21h9.8c1.22,0,2.21-0.99,2.21-2.21v-0.96l3.9,2.13
	c0.2,0.11,0.44,0.1,0.63-0.01c0.19-0.11,0.31-0.32,0.31-0.55v-8.97C-273.86,392.65-273.98,392.44-274.18,392.33z M-275.14,393.95
	v6.82l-3.57-1.95v-2.92L-275.14,393.95z M-279.99,393.46l0,7.77c0,0.52-0.42,0.94-0.94,0.94h-9.8c-0.52,0-0.94-0.42-0.94-0.94v-7.77
	c0-0.52,0.42-0.94,0.94-0.94h9.8C-280.41,392.53-279.99,392.95-279.99,393.46z"/>
</svg>
