<?xml version="1.0" encoding="utf-8"?>
<!-- Generator: Adobe Illustrator 21.0.0, SVG Export Plug-In . SVG Version: 6.00 Build 0)  -->
<svg version="1.1" id="Layer_1" xmlns="http://www.w3.org/2000/svg" xmlns:xlink="http://www.w3.org/1999/xlink" x="0px" y="0px"
	 viewBox="-294 386.7 21.2 21.3" style="enable-background:new -294 386.7 21.2 21.3;" xml:space="preserve">
<g>
	<g>
		<g>
			<path d="M-283.4,387.65c-1.87,0-3.4,1.53-3.4,3.4v6.68c0,1.87,1.53,3.4,3.4,3.4s3.4-1.51,3.4-3.38v-6.71
				C-280,389.17-281.53,387.65-283.4,387.65z M-281.42,397.75c0,1.08-0.89,1.96-1.98,1.96c-1.09,0-1.98-0.89-1.98-1.98v-6.68
				c0-1.09,0.89-1.98,1.98-1.98s1.98,0.89,1.98,1.98V397.75z"/>
		</g>
	</g>
	<g>
		<g>
			<rect x="-284.11" y="403.16" width="1.42" height="3.19"/>
		</g>
	</g>
	<g>
		<g>
			<path d="M-281.53,405.64h-3.73c-0.39,0-0.71,0.32-0.71,0.71s0.32,0.71,0.71,0.71h3.73c0.39,0,0.71-0.32,0.71-0.71
				S-281.14,405.64-281.53,405.64z"/>
		</g>
	</g>
	<g>
		<g>
			<path d="M-278.04,396.55c-0.39,0-0.71,0.32-0.71,0.71v0.57c0,2.56-2.09,4.65-4.65,4.65c-2.57,0-4.65-2.09-4.65-4.65v-0.57
				c0-0.39-0.32-0.71-0.71-0.71s-0.71,0.32-0.71,0.71v0.57c0,3.35,2.72,6.07,6.07,6.07c3.35,0,6.07-2.72,6.07-6.07v-0.57
				C-277.33,396.86-277.65,396.55-278.04,396.55z"/>
		</g>
	</g>
</g>
</svg>
