<?xml version="1.0" encoding="utf-8"?>
<!-- Generator: Adobe Illustrator 21.0.0, SVG Export Plug-In . SVG Version: 6.00 Build 0)  -->
<svg version="1.1" id="Layer_1" xmlns="http://www.w3.org/2000/svg" xmlns:xlink="http://www.w3.org/1999/xlink" x="0px" y="0px"
	 viewBox="-294 386.7 21.2 21.3" style="enable-background:new -294 386.7 21.2 21.3;" xml:space="preserve">
<g>
	<path d="M-283.4,406.92c-2.25,0-4.43-0.81-6.15-2.27c-0.4-0.34-0.78-0.72-1.12-1.13c-1.44-1.72-2.24-3.91-2.24-6.17
		c0-2.56,0.99-4.96,2.78-6.77s4.18-2.8,6.72-2.8s4.92,1,6.72,2.8s2.78,4.21,2.78,6.77c0,2.26-0.79,4.45-2.24,6.17
		c-0.34,0.41-0.72,0.79-1.12,1.13C-278.97,406.11-281.15,406.92-283.4,406.92L-283.4,406.92z M-283.4,388.98
		c-4.58,0-8.32,3.76-8.32,8.37c0,1.97,0.69,3.89,1.96,5.4c0.3,0.36,0.63,0.69,0.98,0.99c1.5,1.28,3.41,1.99,5.38,1.99
		s3.88-0.71,5.38-1.99c0.35-0.3,0.68-0.63,0.98-0.99c1.26-1.51,1.96-3.42,1.96-5.4C-275.08,392.73-278.82,388.98-283.4,388.98
		L-283.4,388.98z"/>
	<path d="M-283.4,397.35c-1.97,0-3.56-1.61-3.56-3.59s1.6-3.59,3.56-3.59c1.96,0,3.56,1.61,3.56,3.59S-281.43,397.35-283.4,397.35z
		 M-283.4,391.37c-1.31,0-2.38,1.07-2.38,2.39s1.07,2.39,2.38,2.39c1.31,0,2.38-1.07,2.38-2.39S-282.09,391.37-283.4,391.37z"/>
	<path d="M-277.64,404.79c-0.05,0-0.1-0.01-0.15-0.02c-0.32-0.08-0.51-0.41-0.43-0.73c0.11-0.43,0.16-0.87,0.16-1.32
		c0-2.93-2.36-5.34-5.27-5.38l-0.08,0l-0.08,0c-2.9,0.04-5.27,2.46-5.27,5.38c0,0.45,0.05,0.89,0.16,1.32
		c0.08,0.32-0.11,0.65-0.43,0.73c-0.32,0.08-0.64-0.11-0.72-0.43c-0.13-0.52-0.2-1.06-0.2-1.61c0-1.74,0.67-3.38,1.88-4.62
		c1.21-1.24,2.83-1.93,4.56-1.96c0,0,0.01,0,0.01,0l0.08,0l0.08,0c0,0,0.01,0,0.01,0c1.73,0.02,3.34,0.72,4.56,1.96
		c1.21,1.24,1.88,2.88,1.88,4.62c0,0.54-0.07,1.08-0.2,1.61C-277.13,404.61-277.37,404.79-277.64,404.79z"/>
</g>
</svg>
