<?xml version="1.0" encoding="utf-8"?>
<!-- Generator: Adobe Illustrator 21.0.0, SVG Export Plug-In . SVG Version: 6.00 Build 0)  -->
<svg version="1.1" id="Layer_1" xmlns="http://www.w3.org/2000/svg" xmlns:xlink="http://www.w3.org/1999/xlink" x="0px" y="0px"
	 viewBox="-294 386.7 21.2 21.3" style="enable-background:new -294 386.7 21.2 21.3;" xml:space="preserve">
<g>
	<g>
		<g>
			<path d="M-287.44,400.14l-1.89-1.85c-0.37-0.36-0.86-0.56-1.39-0.56h-1.31c-0.22,0-0.39,0.17-0.39,0.38s0.18,0.38,0.39,0.38h1.31
				c0.31,0,0.61,0.12,0.83,0.34l1.22,1.2h-3.37c-0.22,0-0.39,0.17-0.39,0.38s0.18,0.38,0.39,0.38h4.32c0.16,0,0.3-0.09,0.36-0.24
				C-287.29,400.42-287.33,400.25-287.44,400.14z"/>
		</g>
	</g>
	<g>
		<g>
			<path d="M-287.72,401.95c-0.22,0-0.39,0.17-0.39,0.38v1.15c0,0.21-0.18,0.38-0.39,0.38h-2.35c-0.22,0-0.39-0.17-0.39-0.38v-1.53
				c0-0.21-0.18-0.38-0.39-0.38c-0.22,0-0.39,0.17-0.39,0.38v1.53c0,0.63,0.53,1.15,1.18,1.15h2.35c0.65,0,1.18-0.52,1.18-1.15
				v-1.15C-287.32,402.12-287.5,401.95-287.72,401.95z"/>
		</g>
	</g>
	<g>
		<g>
			<path d="M-275.76,395.48c-1.08-0.55-3.51-0.81-7.64-0.81c-4.13,0-6.55,0.26-7.64,0.81c-1.23,0.63-1.78,1.68-1.78,3.41
				c0,1.66,0.39,3.1,0.41,3.16c0.05,0.17,0.2,0.28,0.38,0.28h3.44l1.49,0.73c0.05,0.03,0.12,0.04,0.18,0.04h7.06
				c0.06,0,0.12-0.01,0.17-0.04l1.49-0.73h3.44c0.18,0,0.33-0.12,0.38-0.28c0.02-0.06,0.41-1.5,0.41-3.16
				C-273.98,397.16-274.53,396.11-275.76,395.48z M-275.08,401.57h-3.22c-0.06,0-0.12,0.01-0.18,0.04l-1.49,0.73h-6.88l-1.49-0.73
				c-0.05-0.03-0.12-0.04-0.18-0.04h-3.22c-0.11-0.49-0.31-1.54-0.31-2.68c0-1.44,0.39-2.23,1.36-2.73
				c0.94-0.48,3.39-0.72,7.27-0.72s6.33,0.24,7.27,0.72c0.96,0.49,1.36,1.28,1.36,2.73C-274.77,400.02-274.97,401.08-275.08,401.57z
				"/>
		</g>
	</g>
	<g>
		<g>
			<path d="M-274.77,400.03h-3.37l1.22-1.2c0.22-0.21,0.52-0.34,0.83-0.34h1.31c0.22,0,0.39-0.17,0.39-0.38s-0.18-0.38-0.39-0.38
				h-1.31c-0.52,0-1.02,0.2-1.39,0.56l-1.89,1.85c-0.11,0.11-0.15,0.27-0.08,0.42s0.2,0.24,0.36,0.24h4.32
				c0.22,0,0.39-0.17,0.39-0.38C-274.38,400.2-274.55,400.03-274.77,400.03z"/>
		</g>
	</g>
	<g>
		<g>
			<path d="M-278.73,397.95c-0.07-0.13-0.2-0.22-0.36-0.22h-8.63c-0.15,0-0.29,0.09-0.36,0.22c-0.06,0.13-0.04,0.29,0.05,0.41
				l1.96,2.3c0.07,0.09,0.19,0.14,0.3,0.14h4.71c0.12,0,0.23-0.05,0.3-0.14l1.96-2.3C-278.68,398.25-278.66,398.09-278.73,397.95z
				 M-281.23,400.03h-4.34l-1.31-1.53h6.96L-281.23,400.03z"/>
		</g>
	</g>
	<g>
		<g>
			<path d="M-275.59,395.66c-0.45-1-1.94-4.31-2.46-4.74c-0.65-0.54-2.5-0.86-4.96-0.86h-0.78c-2.46,0-4.32,0.32-4.96,0.86
				c-0.52,0.43-2.01,3.74-2.46,4.74c-0.09,0.19,0.01,0.42,0.2,0.5c0.2,0.08,0.43,0,0.52-0.2c0.89-1.99,1.97-4.21,2.25-4.46
				c0.3-0.25,1.58-0.68,4.45-0.68h0.78c2.87,0,4.15,0.42,4.45,0.67c0.28,0.26,1.36,2.47,2.25,4.46c0.06,0.14,0.21,0.23,0.36,0.23
				c0.05,0,0.11-0.01,0.16-0.03C-275.59,396.08-275.5,395.86-275.59,395.66z"/>
		</g>
	</g>
	<g>
		<g>
			<path d="M-275.16,401.57c-0.22,0-0.39,0.17-0.39,0.38v1.53c0,0.21-0.18,0.38-0.39,0.38h-2.35c-0.22,0-0.39-0.17-0.39-0.38v-1.15
				c0-0.21-0.18-0.38-0.39-0.38s-0.39,0.17-0.39,0.38v1.15c0,0.63,0.53,1.15,1.18,1.15h2.35c0.65,0,1.18-0.52,1.18-1.15v-1.53
				C-274.77,401.74-274.94,401.57-275.16,401.57z"/>
		</g>
	</g>
</g>
</svg>
