<?xml version="1.0" encoding="utf-8"?>
<!-- Generator: Adobe Illustrator 21.0.0, SVG Export Plug-In . SVG Version: 6.00 Build 0)  -->
<svg version="1.1" id="Layer_1" xmlns="http://www.w3.org/2000/svg" xmlns:xlink="http://www.w3.org/1999/xlink" x="0px" y="0px"
	 viewBox="-294 386.7 21.2 21.3" style="enable-background:new -294 386.7 21.2 21.3;" xml:space="preserve">
<g id="Speech_Bubble_48_">
	<g>
		<path d="M-290.17,405.76h-1.35l0.96-0.96c0.52-0.52,0.84-1.19,0.93-1.92c-1.35-0.88-2.33-2.05-2.86-3.38
			c-0.53-1.33-0.59-2.8-0.19-4.24c0.48-1.73,1.61-3.31,3.18-4.44c1.71-1.23,3.83-1.88,6.15-1.88c2.91,0,5.37,0.84,7.1,2.42
			c1.56,1.43,2.42,3.35,2.42,5.42c0,1-0.2,1.98-0.61,2.91c-0.42,0.96-1.03,1.81-1.82,2.53c-1.74,1.59-4.19,2.43-7.1,2.43
			c-1.08,0-2.21-0.14-3.21-0.41C-287.53,405.21-288.82,405.76-290.17,405.76L-290.17,405.76z M-283.37,390.06
			c-4.64,0-7.48,2.77-8.25,5.51c-0.72,2.59,0.34,5.04,2.84,6.55l0.28,0.17l-0.01,0.33c-0.02,0.65-0.17,1.27-0.45,1.83
			c0.67-0.23,1.28-0.64,1.76-1.2l0.24-0.28l0.35,0.11c0.99,0.3,2.14,0.46,3.23,0.46c5.77,0,8.4-3.5,8.4-6.74
			c0-1.75-0.73-3.38-2.06-4.59C-278.54,390.79-280.74,390.06-283.37,390.06L-283.37,390.06z"/>
	</g>
</g>
</svg>
