<?xml version="1.0" encoding="utf-8"?>
<!-- Generator: Adobe Illustrator 21.0.0, SVG Export Plug-In . SVG Version: 6.00 Build 0)  -->
<svg version="1.1" id="Layer_1" xmlns="http://www.w3.org/2000/svg" xmlns:xlink="http://www.w3.org/1999/xlink" x="0px" y="0px"
	 viewBox="-294 386.7 21.2 21.3" style="enable-background:new -294 386.7 21.2 21.3;" xml:space="preserve">
<g>
	<path d="M-273.86,398.22c-6.36,0-12.72,0-19.07,0c0-0.58,0-1.16,0-1.73c6.36,0,12.71,0,19.07,0
		C-273.86,397.06-273.86,397.64-273.86,398.22z"/>
	<path d="M-273.86,391.28c-3.45,0-6.91,0.12-10.35-0.08c-0.91-0.05-1.77-1.07-2.65-1.65c3.9,0,7.8-0.06,11.7,0.08
		C-274.71,389.64-274.3,390.7-273.86,391.28z"/>
	<path d="M-292.94,403.42c3.45,0,6.91-0.11,10.35,0.08c0.91,0.05,1.77,1.07,2.66,1.65c-3.9,0-7.8,0.06-11.7-0.08
		C-292.09,405.06-292.5,404-292.94,403.42z"/>
</g>
</svg>
