<?xml version="1.0" encoding="utf-8"?>
<!-- Generator: Adobe Illustrator 24.2.3, SVG Export Plug-In . SVG Version: 6.00 Build 0)  -->
<svg version="1.1" id="Layer_1" xmlns="http://www.w3.org/2000/svg" xmlns:xlink="http://www.w3.org/1999/xlink" x="0px" y="0px"
	 viewBox="-294 386.7 21.2 21.3" style="enable-background:new -294 386.7 21.2 21.3;" xml:space="preserve">
<style type="text/css">
	.st0{fill:none;}
	.st1{fill:#28336D;}
	.st2{fill:#28346D;}
</style>
<path class="st0" d="M-282.51,395.84v0.81c0,0.03,0.02,0.05,0.05,0.05h3.29v-0.9h-3.29C-282.49,395.79-282.51,395.81-282.51,395.84z
	"/>
<path class="st0" d="M-282.51,395.84v0.81c0,0.03,0.02,0.05,0.05,0.05h3.29v-0.9h-3.29C-282.49,395.79-282.51,395.81-282.51,395.84z
	"/>
<g>
	<g id="XMLID_224_">
		<path id="XMLID_225_" class="st1" d="M-276.96,400.88c-1.47,0-2.66,1.19-2.66,2.66c0,1.47,1.19,2.66,2.66,2.66
			s2.66-1.19,2.66-2.66C-274.3,402.07-275.49,400.88-276.96,400.88z M-275.98,403.85h-0.65v0.65c0,0.18-0.15,0.33-0.33,0.33
			s-0.33-0.15-0.33-0.33v-0.65h-0.65c-0.18,0-0.33-0.15-0.33-0.33s0.15-0.33,0.33-0.33h0.65v-0.65c0-0.18,0.15-0.33,0.33-0.33
			s0.33,0.15,0.33,0.33v0.65h0.65c0.18,0,0.33,0.15,0.33,0.33S-275.8,403.85-275.98,403.85z"/>
	</g>
	<path class="st2" d="M-273.9,393.84c0-1.24,0-2.11,0-2.19c0-0.92-0.75-1.67-1.67-1.67h-0.22v2.04c0,0.31-0.25,0.56-0.56,0.56
		s-0.56-0.25-0.56-0.56c0-0.62,0-2.35,0-2.97c0-0.31-0.25-0.56-0.56-0.56c-0.31,0-0.56,0.25-0.56,0.56v0.93h-3.71v2.04
		c0,0.31-0.25,0.56-0.56,0.56s-0.56-0.25-0.56-0.56c0-0.62,0-2.35,0-2.97c0-0.31-0.25-0.56-0.56-0.56s-0.56,0.25-0.56,0.56v0.93
		h-3.71v2.04c0,0.31-0.25,0.56-0.56,0.56s-0.56-0.25-0.56-0.56c0-0.62,0-2.35,0-2.97c0-0.31-0.25-0.56-0.56-0.56
		s-0.56,0.25-0.56,0.56v0.93h-1.34c-0.92,0-1.67,0.75-1.67,1.67v2.19H-273.9z"/>
	<path class="st2" d="M-280.58,403.48c0-1.42,0.84-2.63,2.05-3.19h-0.71c-0.31,0-0.56-0.25-0.56-0.56c0-0.31,0.25-0.56,0.56-0.56
		h1.19c0.31,0,0.56,0.25,0.56,0.56c0,0.1-0.04,0.2-0.09,0.28c0.17-0.03,0.34-0.05,0.52-0.05c1.4,0,2.61,0.83,3.17,2.02
		c0-1.9,0-4.79,0-7.03c-0.35,0-18.8,0-19,0v9.02c0,0.92,0.75,1.67,1.67,1.67h11.4C-280.29,405.04-280.58,404.3-280.58,403.48z
		 M-279.24,396.81h1.19c0.31,0,0.56,0.25,0.56,0.56c0,0.31-0.25,0.56-0.56,0.56h-1.19c-0.31,0-0.56-0.25-0.56-0.56
		C-279.8,397.06-279.55,396.81-279.24,396.81z M-287.56,402.67h-1.19c-0.31,0-0.56-0.25-0.56-0.56c0-0.31,0.25-0.56,0.56-0.56h1.19
		c0.31,0,0.56,0.25,0.56,0.56C-287,402.42-287.25,402.67-287.56,402.67z M-287.56,400.3h-1.19c-0.31,0-0.56-0.25-0.56-0.56
		c0-0.31,0.25-0.56,0.56-0.56h1.19c0.31,0,0.56,0.25,0.56,0.56C-287,400.05-287.25,400.3-287.56,400.3z M-287.56,397.92h-1.19
		c-0.31,0-0.56-0.25-0.56-0.56c0-0.31,0.25-0.56,0.56-0.56h1.19c0.31,0,0.56,0.25,0.56,0.56
		C-287,397.67-287.25,397.92-287.56,397.92z M-282.81,402.67h-1.19c-0.31,0-0.56-0.25-0.56-0.56c0-0.31,0.25-0.56,0.56-0.56h1.19
		c0.31,0,0.56,0.25,0.56,0.56C-282.25,402.42-282.5,402.67-282.81,402.67z M-282.81,400.3h-1.19c-0.31,0-0.56-0.25-0.56-0.56
		c0-0.31,0.25-0.56,0.56-0.56h1.19c0.31,0,0.56,0.25,0.56,0.56C-282.25,400.05-282.5,400.3-282.81,400.3z M-282.81,397.92h-1.19
		c-0.31,0-0.56-0.25-0.56-0.56c0-0.31,0.25-0.56,0.56-0.56h1.19c0.31,0,0.56,0.25,0.56,0.56
		C-282.25,397.67-282.5,397.92-282.81,397.92z"/>
</g>
</svg>
