<?xml version="1.0" encoding="utf-8"?>
<!-- Generator: Adobe Illustrator 21.0.0, SVG Export Plug-In . SVG Version: 6.00 Build 0)  -->
<svg version="1.1" id="Layer_1" xmlns="http://www.w3.org/2000/svg" xmlns:xlink="http://www.w3.org/1999/xlink" x="0px" y="0px"
	 viewBox="-294 386.7 21.2 21.3" style="enable-background:new -294 386.7 21.2 21.3;" xml:space="preserve">
<path d="M-274.36,396.11C-274.37,396.11-274.37,396.11-274.36,396.11l-7.79-7.79c-0.33-0.33-0.77-0.52-1.24-0.52
	c-0.47,0-0.91,0.18-1.24,0.52l-7.79,7.79c0,0-0.01,0.01-0.01,0.01c-0.68,0.69-0.68,1.8,0,2.48c0.31,0.31,0.73,0.49,1.17,0.51
	c0.02,0,0.04,0,0.05,0h0.31v5.73c0,1.13,0.92,2.06,2.06,2.06h3.05c0.31,0,0.56-0.25,0.56-0.56v-4.49c0-0.52,0.42-0.94,0.94-0.94h1.8
	c0.52,0,0.94,0.42,0.94,0.94v4.49c0,0.31,0.25,0.56,0.56,0.56h3.05c1.13,0,2.06-0.92,2.06-2.06v-5.73h0.29
	c0.47,0,0.91-0.18,1.24-0.52C-273.68,397.91-273.68,396.79-274.36,396.11z M-275.16,397.8c-0.12,0.12-0.28,0.19-0.45,0.19h-0.85
	c-0.31,0-0.56,0.25-0.56,0.56v6.29c0,0.52-0.42,0.94-0.94,0.94h-2.49v-3.94c0-1.13-0.92-2.06-2.06-2.06h-1.8
	c-1.13,0-2.06,0.92-2.06,2.06v3.94h-2.49c-0.52,0-0.94-0.42-0.94-0.94v-6.29c0-0.31-0.25-0.56-0.56-0.56h-0.83
	c-0.01,0-0.02,0-0.03,0c-0.17,0-0.32-0.07-0.44-0.19c-0.25-0.25-0.25-0.65,0-0.9c0,0,0,0,0,0l0,0l7.79-7.79
	c0.12-0.12,0.28-0.19,0.45-0.19c0.17,0,0.33,0.07,0.45,0.19l7.79,7.79c0,0,0,0,0,0C-274.91,397.15-274.91,397.55-275.16,397.8z"/>
</svg>
