<?xml version="1.0" encoding="utf-8"?>
<!-- Generator: Adobe Illustrator 21.0.0, SVG Export Plug-In . SVG Version: 6.00 Build 0)  -->
<svg version="1.1" id="Layer_1" xmlns="http://www.w3.org/2000/svg" xmlns:xlink="http://www.w3.org/1999/xlink" x="0px" y="0px"
	 viewBox="-294 386.7 21.2 21.3" style="enable-background:new -294 386.7 21.2 21.3;" xml:space="preserve">
<style type="text/css">
	.st0{fill:#28336D;}
</style>
<path id="XMLID_135_" class="st0" d="M-274.36,396.17C-274.36,396.17-274.36,396.17-274.36,396.17l-7.8-7.39
	c-0.33-0.32-0.77-0.49-1.24-0.49c-0.47,0-0.91,0.17-1.24,0.49l-7.79,7.39c0,0-0.01,0.01-0.01,0.01c-0.68,0.65-0.68,1.71,0,2.36
	c0.31,0.3,0.73,0.47,1.17,0.49c0.02,0,0.04,0,0.05,0h0.31v5.44c0,1.08,0.92,1.95,2.06,1.95h3.05c0.31,0,0.56-0.24,0.56-0.53v-4.26
	c0-0.49,0.42-0.89,0.94-0.89h1.8c0.52,0,0.94,0.4,0.94,0.89v4.26c0,0.29,0.25,0.53,0.56,0.53h3.05c1.14,0,2.06-0.88,2.06-1.95v-5.44
	h0.29c0.47,0,0.91-0.17,1.24-0.49C-273.67,397.88-273.67,396.82-274.36,396.17z"/>
</svg>
