<?xml version="1.0" encoding="utf-8"?>
<!-- Generator: Adobe Illustrator 21.0.0, SVG Export Plug-In . SVG Version: 6.00 Build 0)  -->
<svg version="1.1" id="Layer_1" xmlns="http://www.w3.org/2000/svg" xmlns:xlink="http://www.w3.org/1999/xlink" x="0px" y="0px"
	 viewBox="-294 386.7 21.2 21.3" style="enable-background:new -294 386.7 21.2 21.3;" xml:space="preserve">
<g>
	<g>
		<g>
			<path d="M-274.01,402.74l-1.1-3.2c0.53-1.08,0.81-2.29,0.81-3.5c0-2.11-0.81-4.1-2.3-5.61c-1.48-1.51-3.46-2.36-5.57-2.39
				c-2.18-0.03-4.24,0.8-5.78,2.34c-1.49,1.49-2.31,3.45-2.34,5.55c-1.47,1.1-2.33,2.83-2.33,4.67c0,0.86,0.2,1.72,0.56,2.49
				l-0.76,2.2c-0.13,0.38-0.04,0.79,0.25,1.07c0.2,0.2,0.46,0.31,0.73,0.31c0.11,0,0.23-0.02,0.34-0.06l2.2-0.76
				c0.77,0.37,1.63,0.56,2.49,0.56c0,0,0.01,0,0.01,0c1.87,0,3.6-0.89,4.7-2.39c1.15-0.03,2.28-0.31,3.3-0.81l3.2,1.1
				c0.13,0.05,0.27,0.07,0.41,0.07c0.32,0,0.63-0.13,0.87-0.36C-273.96,403.68-273.85,403.19-274.01,402.74z M-286.78,405.29
				C-286.78,405.29-286.79,405.29-286.78,405.29c-0.77,0-1.53-0.19-2.2-0.54c-0.14-0.07-0.3-0.09-0.45-0.03l-2.26,0.78l0.78-2.26
				c0.05-0.15,0.04-0.31-0.03-0.45c-0.35-0.67-0.54-1.43-0.54-2.19c0-1.23,0.47-2.39,1.31-3.26c0.27,1.66,1.06,3.19,2.29,4.39
				c1.22,1.2,2.75,1.96,4.4,2.21C-284.36,404.79-285.53,405.29-286.78,405.29z M-275.1,403.22c-0.03,0.03-0.07,0.04-0.11,0.03
				l-3.42-1.18c-0.06-0.02-0.12-0.03-0.18-0.03c-0.09,0-0.18,0.02-0.26,0.07c-0.98,0.52-2.08,0.79-3.2,0.79c0,0-0.01,0-0.01,0
				c-3.73,0-6.81-3.03-6.87-6.76c-0.03-1.88,0.68-3.64,2.01-4.97c1.33-1.33,3.09-2.04,4.97-2.01c3.73,0.06,6.76,3.14,6.76,6.88
				c0,1.11-0.28,2.22-0.79,3.2c-0.07,0.14-0.09,0.3-0.03,0.45l1.18,3.42C-275.06,403.15-275.07,403.19-275.1,403.22z"/>
		</g>
	</g>
	<g>
		<g>
			<path d="M-278.93,393.04h-6.71c-0.31,0-0.56,0.25-0.56,0.56c0,0.31,0.25,0.56,0.56,0.56h6.71c0.31,0,0.56-0.25,0.56-0.56
				S-278.62,393.04-278.93,393.04z"/>
		</g>
	</g>
	<g>
		<g>
			<path d="M-278.93,395.36h-6.71c-0.31,0-0.56,0.25-0.56,0.56s0.25,0.56,0.56,0.56h6.71c0.31,0,0.56-0.25,0.56-0.56
				S-278.62,395.36-278.93,395.36z"/>
		</g>
	</g>
	<g>
		<g>
			<path d="M-281.51,397.68h-4.13c-0.31,0-0.56,0.25-0.56,0.56c0,0.31,0.25,0.56,0.56,0.56h4.13c0.31,0,0.56-0.25,0.56-0.56
				S-281.2,397.68-281.51,397.68z"/>
		</g>
	</g>
</g>
</svg>
