<?xml version="1.0" encoding="utf-8"?>
<!-- Generator: Adobe Illustrator 21.0.0, SVG Export Plug-In . SVG Version: 6.00 Build 0)  -->
<svg version="1.1" id="Layer_1" xmlns="http://www.w3.org/2000/svg" xmlns:xlink="http://www.w3.org/1999/xlink" x="0px" y="0px"
	 viewBox="0 0 21.2 21.3" style="enable-background:new 0 0 21.2 21.3;" xml:space="preserve">
<style type="text/css">
	.st0{fill:#151515;}
</style>
<g>
	<path class="st0" d="M16.2,11.8c-2.2,0-4,1.8-4,4s1.8,4,4,4s4-1.8,4-4S18.4,11.8,16.2,11.8z M16.2,19.1c-1.8,0-3.3-1.5-3.3-3.3
		s1.5-3.3,3.3-3.3s3.3,1.5,3.3,3.3S18,19.1,16.2,19.1z"/>
	<path class="st0" d="M17.7,15.9h-1.2v-2.2c0-0.2-0.2-0.4-0.4-0.4c-0.2,0-0.4,0.2-0.4,0.4v2.6c0,0.2,0.2,0.4,0.4,0.4h1.5
		c0.2,0,0.4-0.2,0.4-0.4C18.1,16,17.9,15.9,17.7,15.9z"/>
	<path class="st0" d="M6.3,9.9H5.1c-0.2,0-0.4,0.2-0.4,0.4c0,0.2,0.2,0.4,0.4,0.4h1.2c0.2,0,0.4-0.2,0.4-0.4
		C6.6,10.1,6.5,9.9,6.3,9.9z"/>
	<path class="st0" d="M6.3,12.3H5.1c-0.2,0-0.4,0.2-0.4,0.4c0,0.2,0.2,0.4,0.4,0.4h1.2c0.2,0,0.4-0.2,0.4-0.4
		C6.6,12.5,6.5,12.3,6.3,12.3z"/>
	<path class="st0" d="M6.3,14.7H5.1c-0.2,0-0.4,0.2-0.4,0.4c0,0.2,0.2,0.4,0.4,0.4h1.2c0.2,0,0.4-0.2,0.4-0.4
		C6.6,14.8,6.5,14.7,6.3,14.7z"/>
	<path class="st0" d="M11,9.9H9.8c-0.2,0-0.4,0.2-0.4,0.4c0,0.2,0.2,0.4,0.4,0.4H11c0.2,0,0.4-0.2,0.4-0.4
		C11.4,10.1,11.2,9.9,11,9.9z"/>
	<path class="st0" d="M11,12.3H9.8c-0.2,0-0.4,0.2-0.4,0.4c0,0.2,0.2,0.4,0.4,0.4H11c0.2,0,0.4-0.2,0.4-0.4
		C11.4,12.5,11.2,12.3,11,12.3z"/>
	<path class="st0" d="M11,14.7H9.8c-0.2,0-0.4,0.2-0.4,0.4c0,0.2,0.2,0.4,0.4,0.4H11c0.2,0,0.4-0.2,0.4-0.4
		C11.4,14.8,11.2,14.7,11,14.7z"/>
	<path class="st0" d="M15.8,9.9h-1.2c-0.2,0-0.4,0.2-0.4,0.4c0,0.2,0.2,0.4,0.4,0.4h1.2c0.2,0,0.4-0.2,0.4-0.4
		C16.2,10.1,16,9.9,15.8,9.9z"/>
	<path class="st0" d="M11.8,17.7H2.6c-0.4,0-0.8-0.3-0.8-0.8V7.7h17.3V12c0.3,0.2,0.5,0.4,0.7,0.7V4.5c0-0.8-0.7-1.5-1.5-1.5h-1.5
		V1.9c0-0.2-0.2-0.4-0.4-0.4c-0.2,0-0.4,0.2-0.4,0.4V3h-5.2V1.9c0-0.2-0.2-0.4-0.4-0.4c-0.2,0-0.4,0.2-0.4,0.4V3H4.8V1.9
		c0-0.2-0.2-0.4-0.4-0.4c-0.2,0-0.4,0.2-0.4,0.4V3H2.5C1.7,3,1,3.7,1,4.5v12.4c0,0.8,0.7,1.5,1.5,1.5h9.6
		C12,18.2,11.9,17.9,11.8,17.7z M1.8,4.5c0-0.4,0.3-0.8,0.8-0.8h1.5v1.1c0,0.2,0.2,0.4,0.4,0.4c0.2,0,0.4-0.2,0.4-0.4V3.8h5.2v1.1
		c0,0.2,0.2,0.4,0.4,0.4c0.2,0,0.4-0.2,0.4-0.4V3.8H16v1.1c0,0.2,0.2,0.4,0.4,0.4c0.2,0,0.4-0.2,0.4-0.4V3.8h1.5
		c0.4,0,0.8,0.3,0.8,0.8v2.4H1.8L1.8,4.5L1.8,4.5z"/>
</g>
</svg>
