<?xml version="1.0" encoding="utf-8"?>
<!-- Generator: Adobe Illustrator 21.0.0, SVG Export Plug-In . SVG Version: 6.00 Build 0)  -->
<svg version="1.1" id="Layer_1" xmlns="http://www.w3.org/2000/svg" xmlns:xlink="http://www.w3.org/1999/xlink" x="0px" y="0px"
	 viewBox="-294 386.7 21.2 21.3" style="enable-background:new -294 386.7 21.2 21.3;" xml:space="preserve">
<g>
	<path d="M-277.52,397.61v-1.81c0-2.65-1.76-4.89-4.17-5.62v-0.82c0-0.94-0.77-1.71-1.71-1.71c-0.94,0-1.71,0.77-1.71,1.71v0.82
		c-2.41,0.73-4.17,2.98-4.17,5.62v1.81c0,2.33-0.89,4.53-2.5,6.21c-0.16,0.16-0.2,0.41-0.11,0.62s0.3,0.35,0.52,0.35h5.18
		c0.26,1.3,1.41,2.27,2.79,2.27c1.37,0,2.52-0.98,2.79-2.27h5.18c0.23,0,0.43-0.14,0.52-0.35c0.09-0.21,0.05-0.45-0.11-0.62
		C-276.64,402.14-277.52,399.94-277.52,397.61z M-283.97,389.35c0-0.31,0.26-0.57,0.57-0.57c0.31,0,0.57,0.26,0.57,0.57v0.6
		c-0.19-0.02-0.38-0.03-0.57-0.03c-0.19,0-0.38,0.01-0.57,0.03V389.35z M-283.4,405.92c-0.74,0-1.37-0.48-1.61-1.14h3.22
		C-282.03,405.44-282.66,405.92-283.4,405.92L-283.4,405.92z M-290.14,403.64c1.3-1.74,2-3.84,2-6.03v-1.81
		c0-2.61,2.13-4.74,4.74-4.74c2.61,0,4.74,2.13,4.74,4.74v1.81c0,2.2,0.7,4.3,2,6.03H-290.14z"/>
	<path d="M-276.01,395.8c0,0.31,0.25,0.57,0.57,0.57c0.31,0,0.57-0.25,0.57-0.57c0-2.28-0.89-4.42-2.5-6.03
		c-0.22-0.22-0.58-0.22-0.8,0s-0.22,0.58,0,0.8C-276.78,391.96-276.01,393.82-276.01,395.8L-276.01,395.8z"/>
	<path d="M-291.36,396.36c0.31,0,0.57-0.25,0.57-0.57c0-1.97,0.77-3.83,2.17-5.23c0.22-0.22,0.22-0.58,0-0.8
		c-0.22-0.22-0.58-0.22-0.8,0c-1.61,1.61-2.5,3.75-2.5,6.03C-291.93,396.11-291.68,396.36-291.36,396.36z"/>
</g>
</svg>
