<?xml version="1.0" encoding="utf-8"?>
<!-- Generator: Adobe Illustrator 21.0.0, SVG Export Plug-In . SVG Version: 6.00 Build 0)  -->
<svg version="1.1" id="Layer_1" xmlns="http://www.w3.org/2000/svg" xmlns:xlink="http://www.w3.org/1999/xlink" x="0px" y="0px"
	 viewBox="-294 386.7 21.2 21.3" style="enable-background:new -294 386.7 21.2 21.3;" xml:space="preserve">
<path d="M-292.06,406.95c-0.2,0-0.39-0.08-0.53-0.22c-0.17-0.18-0.25-0.42-0.2-0.67l0.65-3.43c0,0,0,0,0-0.01
	c0.33-1.64,1.13-3.13,2.31-4.32l6.82-6.74c0.29-0.29,0.77-0.29,1.06,0.01c0.29,0.29,0.29,0.77-0.01,1.06l-6.82,6.74
	c-0.97,0.97-1.63,2.2-1.9,3.54l-0.45,2.35l2.37-0.43c1.35-0.27,2.57-0.93,3.55-1.9l5.62-5.55c0.38-0.38,0.39-1.01,0.01-1.4
	l-1.35-1.38c-0.29-0.3-0.28-0.77,0.01-1.06c0.3-0.29,0.77-0.28,1.06,0.01l1.35,1.38c0.95,0.97,0.94,2.55-0.02,3.51l-5.62,5.55
	c-1.18,1.18-2.67,1.98-4.31,2.31c0,0-0.01,0-0.01,0l-3.45,0.63C-291.97,406.95-292.02,406.95-292.06,406.95L-292.06,406.95z
	 M-286.86,402.8c0.29-0.29,0.29-0.77,0-1.06l-0.75-0.75c-0.73-0.67-1.73,0.33-1.06,1.06l0.75,0.75c0.15,0.15,0.34,0.22,0.53,0.22
	S-287,402.95-286.86,402.8z M-275.49,395.4l0.67-0.76c1.54-1.5,1.54-4.18-0.02-5.67c-1.5-1.56-4.19-1.56-5.68,0
	c-0.01,0.01-0.51,0.57-0.51,0.57c-0.27,0.31-0.24,0.78,0.06,1.06c0.31,0.27,0.78,0.24,1.06-0.06l0.46-0.52
	c0.94-0.96,2.62-0.96,3.55,0.02c0.98,0.94,0.98,2.63,0,3.57c-0.01,0.01-0.72,0.81-0.72,0.81c-0.27,0.31-0.25,0.78,0.06,1.06
	c0.14,0.13,0.32,0.19,0.5,0.19C-275.85,395.65-275.64,395.57-275.49,395.4L-275.49,395.4z"/>
</svg>
