<?xml version="1.0" encoding="utf-8"?>
<!-- Generator: Adobe Illustrator 21.0.0, SVG Export Plug-In . SVG Version: 6.00 Build 0)  -->
<svg version="1.1" id="Layer_1" xmlns="http://www.w3.org/2000/svg" xmlns:xlink="http://www.w3.org/1999/xlink" x="0px" y="0px"
	 viewBox="-294 386.7 21.2 21.3" style="enable-background:new -294 386.7 21.2 21.3;" xml:space="preserve">
<g>
	<g>
		<path d="M-277.41,387.65h-12.18c-0.31,0-0.57,0.25-0.57,0.57v18.27c0,0.23,0.14,0.44,0.35,0.53c0.07,0.03,0.14,0.04,0.22,0.04
			c0.15,0,0.29-0.06,0.4-0.17l5.69-5.69l5.69,5.69c0.16,0.16,0.41,0.21,0.62,0.12c0.21-0.09,0.35-0.3,0.35-0.53v-18.27
			C-276.84,387.9-277.1,387.65-277.41,387.65z M-283.5,399.83c-0.15,0-0.3,0.06-0.4,0.17l-5.12,5.12v-16.33h11.04v16.33l-5.12-5.12
			C-283.21,399.89-283.35,399.83-283.5,399.83z"/>
	</g>
</g>
</svg>
