<?xml version="1.0" encoding="utf-8"?>
<!-- Generator: Adobe Illustrator 21.0.0, SVG Export Plug-In . SVG Version: 6.00 Build 0)  -->
<svg version="1.1" id="Layer_1" xmlns="http://www.w3.org/2000/svg" xmlns:xlink="http://www.w3.org/1999/xlink" x="0px" y="0px"
	 viewBox="0 0 21.2 21.3" style="enable-background:new 0 0 21.2 21.3;" xml:space="preserve">
<g>
	<g>
		<path d="M16.69,1.89H4.51c-0.31,0-0.57,0.25-0.57,0.57v18.27c0,0.23,0.14,0.44,0.35,0.53c0.07,0.03,0.14,0.04,0.22,0.04
			c0.15,0,0.29-0.06,0.4-0.17l5.69-5.69l5.69,5.69c0.16,0.16,0.41,0.21,0.62,0.12s0.35-0.3,0.35-0.53V2.45
			C17.26,2.14,17,1.89,16.69,1.89z M10.6,14.07c-0.15,0-0.3,0.06-0.4,0.17l-5.12,5.12V3.03h11.04v16.33L11,14.24
			C10.89,14.13,10.75,14.07,10.6,14.07z"/>
	</g>
</g>
<polygon points="16.69,2.81 4.59,2.81 4.59,20.56 10.45,14.7 16.58,20.83 "/>
</svg>
