<?xml version="1.0" encoding="utf-8"?>
<!-- Generator: Adobe Illustrator 21.0.0, SVG Export Plug-In . SVG Version: 6.00 Build 0)  -->
<svg version="1.1" id="Layer_1" xmlns="http://www.w3.org/2000/svg" xmlns:xlink="http://www.w3.org/1999/xlink" x="0px" y="0px"
	 viewBox="-294 386.7 21.2 21.3" style="enable-background:new -294 386.7 21.2 21.3;" xml:space="preserve">
<path d="M-278.08,399.73c-1.13,0-2.15,0.52-2.82,1.33l-4.37-2.48c0.14-0.38,0.21-0.79,0.21-1.22c0-0.43-0.07-0.84-0.21-1.22
	l4.37-2.48c0.67,0.81,1.69,1.33,2.82,1.33c2.02,0,3.66-1.64,3.66-3.66c0-2.02-1.64-3.66-3.66-3.66c-2.02,0-3.66,1.64-3.66,3.66
	c0,0.43,0.07,0.84,0.21,1.22l-4.37,2.48c-0.67-0.81-1.69-1.33-2.82-1.33c-2.02,0-3.66,1.64-3.66,3.66c0,2.02,1.64,3.66,3.66,3.66
	c1.13,0,2.14-0.52,2.82-1.33l4.37,2.48c-0.14,0.38-0.21,0.79-0.21,1.22c0,2.02,1.64,3.66,3.66,3.66c2.02,0,3.66-1.64,3.66-3.66
	C-274.42,401.37-276.06,399.73-278.08,399.73z M-278.08,388.93c1.31,0,2.38,1.07,2.38,2.38c0,1.31-1.07,2.38-2.38,2.38
	c-1.31,0-2.38-1.07-2.38-2.38C-280.46,389.99-279.39,388.93-278.08,388.93z M-288.72,399.73c-1.31,0-2.38-1.07-2.38-2.38
	c0-1.31,1.07-2.38,2.38-2.38c1.31,0,2.38,1.07,2.38,2.38C-286.34,398.66-287.41,399.73-288.72,399.73z M-278.08,405.77
	c-1.31,0-2.38-1.07-2.38-2.38c0-1.31,1.07-2.38,2.38-2.38c1.31,0,2.38,1.07,2.38,2.38C-275.7,404.71-276.77,405.77-278.08,405.77z"
	/>
</svg>
